<svg width="456" height="97" viewBox="0 0 456 97" fill="none" xmlns="http://www.w3.org/2000/svg">
<rect width="456" height="97" fill="#303D29"/>
<path d="M240 56.5002V48.1783C240 47.3768 239.999 46.9759 239.902 46.6029C239.815 46.2724 239.674 45.9596 239.482 45.677C239.265 45.358 238.964 45.0935 238.361 44.5657L231.161 38.2657C230.041 37.2858 229.481 36.7961 228.851 36.6097C228.296 36.4455 227.704 36.4455 227.149 36.6097C226.519 36.796 225.96 37.2852 224.842 38.2637L217.639 44.5657C217.036 45.0935 216.735 45.358 216.519 45.677C216.327 45.9596 216.184 46.2724 216.097 46.6029C216 46.9759 216 47.3768 216 48.1783V56.5002C216 57.8981 216 58.5967 216.228 59.148C216.533 59.8831 217.116 60.4678 217.852 60.7723C218.403 61.0007 219.102 61.0007 220.5 61.0007C221.897 61.0007 222.597 61.0007 223.148 60.7723C223.884 60.4678 224.467 59.8832 224.771 59.1482C225 58.5969 225 57.8979 225 56.5001V55.0001C225 53.3433 226.343 52.0001 228 52.0001C229.657 52.0001 231 53.3433 231 55.0001V56.5001C231 57.8979 231 58.5968 231.228 59.1482C231.533 59.8832 232.116 60.4678 232.852 60.7723C233.403 61.0007 234.102 61.0007 235.5 61.0007C236.897 61.0007 237.597 61.0007 238.148 60.7723C238.884 60.4678 239.467 59.8831 239.771 59.148C240 58.5967 240 57.8981 240 56.5002Z" stroke="white" stroke-width="2" stroke-linecap="round" stroke-linejoin="round"/>
</svg>
